<svg xmlns="http://www.w3.org/2000/svg" viewBox="0 0 512 512"><title>Free metering</title><g id="Layer_2" data-name="Layer 2"><g id="Capa_1" data-name="Capa 1"><path d="M492,352a20,20,0,0,0,20-20V80A80.09,80.09,0,0,0,432,0H80A80.09,80.09,0,0,0,0,80V432a80.09,80.09,0,0,0,80,80H432a80.09,80.09,0,0,0,80-80,20,20,0,0,0-40,0,40,40,0,0,1-40,40H196V192H472V332A20,20,0,0,0,492,352ZM156,232H100a20,20,0,0,0,0,40h56v40H121a20,20,0,0,0,0,40h35v40H100a20,20,0,0,0,0,40h56v40H80a40,40,0,0,1-40-40V192H156Zm280-80V97a20,20,0,0,0-40,0v55H356V117a20,20,0,0,0-40,0v35H276V97a20,20,0,0,0-40,0v55H196V117a20,20,0,0,0-40,0v35H116V97a20,20,0,0,0-40,0v55H40V80A40,40,0,0,1,80,40H432a40,40,0,0,1,40,40v72Z"/></g></g></svg>