<svg xmlns="http://www.w3.org/2000/svg" viewBox="0 0 511.23 512"><title>Installment plan 0%</title><g id="Layer_2" data-name="Layer 2"><g id="Capa_1" data-name="Capa 1"><circle cx="132.8" cy="256.61" r="19.97"/><path d="M496.89,186.26a20,20,0,1,0-29.54,26.88c2.65,2.91,3.94,7.22,3.94,13.18,0,10.38-4,14-7.87,16.12a29.25,29.25,0,0,1-11.61,3.19H438.28c-8-37.77-27.95-69.21-58.73-92.25a189.28,189.28,0,0,0-47.72-25.63A84.86,84.86,0,1,0,175,99.68C152.39,80.47,124.37,70,92.51,68.91A20,20,0,0,0,74.42,98.6c.16.28,14.15,25.61,19.45,55.79C73.71,173.09,64.19,194.16,57,210.08,54.31,216,50.71,224,48.39,226.66H20a20,20,0,0,0-20,20v79.88a20,20,0,0,0,20,20H40.83A171.57,171.57,0,0,0,92.25,413.2l-6.62,16.06A59.91,59.91,0,0,0,196.4,474.93l7.16-17.37a264.09,264.09,0,0,0,30.4,1.75h1.37A314.32,314.32,0,0,0,282,455.93l7.82,19a59.91,59.91,0,0,0,110.78-45.67l-14.5-35.18a20,20,0,1,0-36.93,15.23l14.5,35.17a20,20,0,1,1-36.92,15.22l-14-33.89a20,20,0,0,0-22.62-11.92,263.56,263.56,0,0,1-54.87,5.48H234a219.41,219.41,0,0,1-39.32-3.5,20,20,0,0,0-22.06,12l-13.11,31.8a20,20,0,1,1-36.92-15.22l12.6-30.57a20,20,0,0,0-7.43-24.26c-26.23-17.38-44.95-41.37-54.14-69.37a20,20,0,0,0-19-13.74H39.94V266.6h9.31c26.05,0,36.08-22.22,44.15-40.08,7.17-15.87,15.29-33.86,33.9-48.14A20,20,0,0,0,135,160.55a206.76,206.76,0,0,0-10.1-45c15.93,6.32,29.46,17,40.42,32.11a20,20,0,0,0,19.56,7.92,290,290,0,0,1,49.07-3.8h1.37c39.19,0,167.06,9.65,167.06,133.8a152.36,152.36,0,0,1-3.19,31.77,20,20,0,0,0,39.05,8.35,192,192,0,0,0,4.08-40.12H452a68.05,68.05,0,0,0,28.57-7c19.78-9.89,30.68-28.44,30.68-52.22C511.23,210.42,506.27,196.56,496.89,186.26ZM290.46,116.57a309.66,309.66,0,0,0-55.13-4.74H234q-5.67,0-11.18.16a44.93,44.93,0,1,1,80.76-27.12A44.44,44.44,0,0,1,290.46,116.57Z"/></g></g></svg>