<svg xmlns="http://www.w3.org/2000/svg" viewBox="0 0 511.98 512"><title>Winter gardens</title><g id="Layer_2" data-name="Layer 2"><g id="Layer_1-2" data-name="Layer 1"><path d="M506.08,254.2a20,20,0,0,1-28.28-.09L462,238.19V332a20,20,0,1,1-40,0V197.93L269.89,44.82a20,20,0,0,0-25.95,0L90,198.43c0,.2,0,.39,0,.58V432a40,40,0,0,0,40,40H382a40,40,0,0,0,40-40,20,20,0,1,1,40,0,80.08,80.08,0,0,1-80,80H130a80.09,80.09,0,0,1-80-80V238.32L34.13,254.16A20,20,0,1,1,5.87,225.85L216.16,16c.26-.27.54-.52.82-.78a60,60,0,0,1,80,.17c.29.26.56.52.83.79L506.17,225.91A20,20,0,0,1,506.08,254.2ZM269.73,201.59c.69.75,17.15,18.74,33.84,41.3C328.08,276,340,301.25,340,320v2a85,85,0,1,1-170,0v-2c0-18.77,11.91-44,36.41-77.13,16.69-22.56,33.16-40.55,33.85-41.3a20,20,0,0,1,29.47,0Zm1.68,65.09c-5.72-7.74-11.45-14.94-16.41-21-5,6.09-10.85,13.4-16.63,21.21C211.36,303.52,210,317.57,210,320v2a45,45,0,0,0,90,0v-2C300,317.56,298.61,303.45,271.41,266.68Z"/></g></g></svg>