<svg xmlns="http://www.w3.org/2000/svg" viewBox="0 0 511.98 512"><title>Glazing of a cottage</title><g id="Layer_2" data-name="Layer 2"><g id="Layer_1-2" data-name="Layer 1"><path d="M505.86,217.61,462,175.34V52a20,20,0,0,0-20-20H362a20,20,0,0,0-20,20V59.3L297.57,15.94l-.6-.57a60,60,0,0,0-80-.17l-.55.51L6.15,217.58A20,20,0,0,0,20,252H50V432a80.09,80.09,0,0,0,80,80H382a80.08,80.08,0,0,0,80-80,20,20,0,1,0-40,0,40,40,0,0,1-40,40H130a40,40,0,0,1-40-40V252H422v80a20,20,0,0,0,40,0V252h30a20,20,0,0,0,13.88-34.4Zm-262-172.74a20,20,0,0,1,26.16,0l78,76.17a20,20,0,0,0,34-14.31V72h40V183.84a20,20,0,0,0,6.12,14.4L442.4,212H69.71ZM176,302a20,20,0,0,0-20,20v80a20,20,0,0,0,20,20H336a20,20,0,0,0,20-20V322a20,20,0,0,0-20-20Zm20,40h40v40H196Zm120,40H276V342h40Z"/></g></g></svg>