<svg xmlns="http://www.w3.org/2000/svg" viewBox="0 0 512 512"><title>Terraces</title><g id="Layer_2" data-name="Layer 2"><g id="Layer_1-2" data-name="Layer 1"><path d="M492,292H432V80A80.09,80.09,0,0,0,352,0H160A80.09,80.09,0,0,0,80,80V292H20a20,20,0,0,0,0,40H40V492a20,20,0,0,0,20,20H452a20,20,0,0,0,20-20V412a20,20,0,0,0-40,0v60H394V332h98a20,20,0,0,0,0-40Zm-216,0V187H392V292Zm-78,40V472H160V332Zm40,0h38V472H238ZM392,80v67H276V40h76A40.05,40.05,0,0,1,392,80ZM120,80a40.05,40.05,0,0,1,40-40h76V147H180a20,20,0,0,0,0,40h56V292H120ZM80,332h40V472H80ZM354,472H316V332h38Z"/></g></g></svg>