<svg xmlns="http://www.w3.org/2000/svg" viewBox="0 0 511.98 512"><title>Winter greenhouses</title><g id="Layer_2" data-name="Layer 2"><g id="Layer_1-2" data-name="Layer 1"><path d="M511.94,20.51A20,20,0,0,0,492.69.07h-.16C486-.15,381.36-2.61,319.82,58.68c-24,23.85-36,49.82-35.84,77.19a100.14,100.14,0,0,0,7.53,36.58,317.67,317.67,0,0,0-23.31,24.6,204.4,204.4,0,0,0-15.56,20.86c-12.39-26.35-29.4-47.54-51-68.31,4-9.92,9.74-26.16,8-45.71-2.17-24.19-14.92-46.09-37.89-65.07C130.94,5.08,75.09,0,45.42,0h-.1A179.75,179.75,0,0,0,16.54,2.06a20,20,0,0,0-16.4,22c.84,11.37,9,97.11,65.29,143.61C85.79,184.51,107,193,128.55,193q3.88,0,7.79-.36c.29,0,21.2-2.14,40-11.9,30,29.51,47.6,58.67,55.75,106.23a20.28,20.28,0,0,0,.63,3.83l.12.76c0,.15.06.29.09.44H130a20,20,0,0,0-19.73,23.29l30,180A20,20,0,0,0,160,512H352a20,20,0,0,0,19.72-16.71l5.5-33a20,20,0,1,0-39.45-6.58L335,472H176.92L153.59,332H358.37l-6.12,36.71a20,20,0,0,0,16.44,23A20.71,20.71,0,0,0,372,392a20,20,0,0,0,19.7-16.71l10-60c0-.19,0-.36.07-.55.05-.36.09-.73.12-1.09s.05-.72.06-1.08c0-.19,0-.38,0-.57s0-.21,0-.32q0-.6-.06-1.2c0-.27,0-.54-.07-.81s-.11-.75-.17-1.12-.11-.58-.17-.87-.16-.66-.25-1-.17-.62-.27-.93-.2-.57-.31-.85-.25-.66-.4-1-.24-.51-.36-.76l-.5-1c-.14-.24-.29-.48-.44-.72s-.37-.61-.58-.89-.36-.49-.54-.73l-.61-.78c-.21-.25-.44-.49-.67-.73l-.62-.66-.79-.71c-.21-.19-.42-.38-.64-.55s-.58-.44-.87-.65-.46-.34-.69-.49l-.9-.54c-.26-.16-.53-.31-.8-.45s-.57-.29-.87-.43l-.93-.41c-.27-.11-.54-.2-.82-.3s-.72-.25-1.09-.36l-.78-.2-1.19-.26a2.84,2.84,0,0,0-.31-.06l-.54-.07-1.11-.12-1-.06c-.21,0-.41,0-.61,0H272.24a19.74,19.74,0,0,0,.09-6.56c-.12-.79-.26-1.57-.38-2.35.06-23.41,11.91-46.54,40.89-75.63C331.93,223.52,353.06,228,370.73,228A110.81,110.81,0,0,0,409.58,221c15.08-5.78,29.7-15.65,43.44-29.34C512.48,132.4,512.23,33.15,511.94,20.51ZM132.57,152.82c-13.49,1.27-27.12-3.95-41.66-16C59.52,110.9,47.23,65.77,42.61,40c.9,0,1.84,0,2.8,0,24.29,0,69.7,3.87,100.87,29.64,14.63,12.1,22.33,24.47,23.53,37.82a45.42,45.42,0,0,1-.84,13.26c-10.14-8.41-21-17.1-32.52-26.35l-9.95-8a20,20,0,1,0-25,31.19l10,8c11.27,9,21.66,17.35,31.24,25.28A69.44,69.44,0,0,1,132.57,152.82ZM424.8,163.26C415,173,405,179.89,395.14,183.65c-.28.11-.33.12-.58.23-2,.79-29,11-51.57-3.79,15.81-13.26,34.62-27.77,56.77-43.93a20,20,0,0,0-23.57-32.31c-19.78,14.43-36.83,27.49-51.56,39.54a50.61,50.61,0,0,1-.65-7.78c-.11-16.46,7.77-32.36,24.07-48.59,35.62-35.47,93.15-44.25,123.31-46.36C469.28,70.64,460.53,127.69,424.8,163.26Z"/></g></g></svg>