<svg xmlns="http://www.w3.org/2000/svg" viewBox="0 0 409.99 512"><title>map</title><g id="Layer_2" data-name="Layer 2"><g id="Capa_1" data-name="Capa 1"><path d="M205,80a125,125,0,1,0,34.28,245.23,20,20,0,1,0-10.95-38.47,84.9,84.9,0,1,1,58.1-57.3A20,20,0,1,0,324.74,241,125.06,125.06,0,0,0,205,80Z"/><path d="M349.87,60A205,205,0,0,0,0,204.8c0,39.86,11.11,77.25,33.84,114.32,19.69,32.09,45.26,60.1,72.33,89.75,26.55,29.07,54,59.13,75.92,93.82A20,20,0,0,0,199,512h12a20,20,0,0,0,16.9-9.32c21.93-34.68,49.37-64.74,75.92-93.81,27.08-29.65,52.65-57.66,72.33-89.75C398.89,282.05,410,244.66,410,204.76A203.65,203.65,0,0,0,349.87,60ZM274.28,381.9c-23.6,25.85-47.89,52.45-69.28,83-21.4-30.59-45.69-57.19-69.29-83C84.39,325.7,40.07,277.16,40,204.81,40.1,113.93,114.12,40,205,40s164.89,73.93,165,164.76C369.92,277.16,325.6,325.7,274.28,381.9Z"/></g></g></svg>