<svg xmlns="http://www.w3.org/2000/svg" viewBox="0 0 512 512"><title>phone</title><g id="Layer_2" data-name="Layer 2"><g id="Capa_1" data-name="Capa 1"><path d="M268,61.09h1A181.56,181.56,0,0,1,450.91,243.9a20,20,0,0,0,19.9,20.1h.1a20,20,0,0,0,20-19.91A221.54,221.54,0,0,0,269,21.09h-1.1a20,20,0,0,0,.1,40Z"/><path d="M512,412.55a75.8,75.8,0,0,0-23.23-52c-27.93-26.93-51.33-42.48-73.65-48.93-30.75-8.89-59.22-.8-84.64,24a1.14,1.14,0,0,0-.11.11l-27.07,26.87c-16.81-9.45-49.49-30.23-85.23-66L215.39,294c-35.51-35.5-56.43-68.37-65.94-85.25l26.84-27a.57.57,0,0,1,.11-.11c24.82-25.42,32.9-53.9,24-84.64-6.44-22.32-22-45.72-48.92-73.65A76.11,76.11,0,0,0,45.86,19.47l-.57.52c-.27.24-.53.48-.78.74C15.15,50.08-.24,91.19,0,139.59c.41,82.22,45.6,176.25,120.88,251.53l.19.18a488.19,488.19,0,0,0,47.76,41.57,20,20,0,1,0,24.34-31.74,447,447,0,0,1-44-38.3l-.19-.19c-67.89-68-108.62-151.4-109-223.25-.18-37.28,11-68.39,32.43-90l.16-.14A36,36,0,0,1,122.69,51c51.78,53.7,48,79.05,25.15,102.51l-37.07,37.36a20,20,0,0,0-4.07,22.22c.94,2.12,23.7,52.43,80.41,109.13l2.63,2.63c56.7,56.7,107,79.47,109.13,80.41a20,20,0,0,0,22.22-4.07l37.35-37.07C381.9,341.28,407.26,337.52,461,389.3a36,36,0,0,1,1.81,50.11l-.14.16C441.18,460.79,410.39,472,373.52,472h-.91c-29.47-.15-63.6-8.23-98.69-23.37a20,20,0,0,0-15.84,36.73c40.56,17.5,79,26.46,114.33,26.64h1.12c47.92,0,88.61-15.38,117.74-44.51.26-.26.5-.51.74-.78l.52-.58A75.74,75.74,0,0,0,512,412.55Z"/><path d="M369.46,142.55c-21.46-21.46-42-27.15-51.94-29.89a20,20,0,0,0-10.66,38.56c8.09,2.24,20.32,5.62,34.31,19.61,13.48,13.48,17.05,25.64,19.42,33.69l.29,1a20,20,0,0,0,38.36-11.36l-.27-.91C395.88,182.74,390.14,163.23,369.46,142.55Z"/></g></g></svg>