<svg xmlns="http://www.w3.org/2000/svg" viewBox="0 0 491.29 512.01">
    <title>price</title>
    <g id="Layer_2" data-name="Layer 2">
        <g id="Capa_1" data-name="Capa 1">
            <path fill="#a05e0f" d="M467.6,262.63a15,15,0,0,1,0-13.26l19.1-39.06a44.46,44.46,0,0,0-19.18-59L429.11,130.9a15,15,0,0,1-7.8-10.73L413.8,77.35a44.45,44.45,0,0,0-50.21-36.48l-43,6.09a15,15,0,0,1-12.61-4.1L276.67,12.63a44.43,44.43,0,0,0-62.06,0L183.36,42.86A15,15,0,0,1,170.75,47l-43-6.09A44.44,44.44,0,0,0,77.49,77.35L70,120.18a15,15,0,0,1-7.8,10.73L23.77,151.29a44.44,44.44,0,0,0-19.18,59l19.1,39.06a15,15,0,0,1,0,13.27L4.59,301.7a44.44,44.44,0,0,0,19.18,59L62.18,381.1A15,15,0,0,1,70,391.83l7.52,42.83a44.41,44.41,0,0,0,43.81,36.93,46.34,46.34,0,0,0,6.4-.45l43.05-6.09a15,15,0,0,1,12.61,4.1l31.25,30.23a44.43,44.43,0,0,0,62.06,0l31.26-30.23a15,15,0,0,1,12.61-4.1l43,6.09a44.44,44.44,0,0,0,50.21-36.48l7.51-42.83a15,15,0,0,1,7.8-10.73l38.41-20.38a44.45,44.45,0,0,0,19.18-59Zm-13.92,72L415.27,355a44.31,44.31,0,0,0-23,31.71l-7.52,42.83a15,15,0,0,1-17,12.34l-43.06-6.09a44.32,44.32,0,0,0-37.28,12.11l-31.25,30.23a15,15,0,0,1-21,0l-31.25-30.23A44.28,44.28,0,0,0,173,435.36a45.55,45.55,0,0,0-6.36.45l-43.05,6.09a15.05,15.05,0,0,1-17-12.34l-7.51-42.83A44.32,44.32,0,0,0,76,355L37.61,334.64a15,15,0,0,1-6.49-20l19.1-39.07a44.4,44.4,0,0,0,0-39.2l-19.1-39.06a15,15,0,0,1,6.49-20L76,157a44.38,44.38,0,0,0,23-31.71l7.51-42.83a15,15,0,0,1,17-12.34l43.05,6.09a44.34,44.34,0,0,0,37.28-12.12l31.25-30.23a15.05,15.05,0,0,1,21,0l31.25,30.23A44.36,44.36,0,0,0,324.67,76.2l43.06-6.09a15,15,0,0,1,17,12.34l7.51,42.83a44.37,44.37,0,0,0,23,31.71l38.41,20.38a15,15,0,0,1,6.48,20L441.07,236.4a44.34,44.34,0,0,0,0,39.2l19.09,39.06A15,15,0,0,1,453.68,334.64Z" />
            <path fill="#a05e0f" d="M353.53,148.12a14.76,14.76,0,0,0-20.88,0L137.76,343a14.76,14.76,0,0,0,20.88,20.88L353.53,169A14.77,14.77,0,0,0,353.53,148.12Z" />
            <path fill="#a05e0f" d="M186.58,123.12a54.14,54.14,0,1,0,54.14,54.14A54.2,54.2,0,0,0,186.58,123.12Zm0,78.74a24.61,24.61,0,1,1,24.61-24.6A24.63,24.63,0,0,1,186.58,201.86Z" />
            <path fill="#a05e0f" d="M304.7,280.61a54.14,54.14,0,1,0,54.14,54.14A54.21,54.21,0,0,0,304.7,280.61Zm0,78.75a24.61,24.61,0,1,1,24.61-24.61A24.64,24.64,0,0,1,304.7,359.36Z" />
        </g>
    </g>
</svg>
