<svg xmlns="http://www.w3.org/2000/svg" viewBox="0 0 512 511.15"><title>credit</title><g id="Layer_2" data-name="Layer 2"><g id="Capa_1" data-name="Capa 1"><path d="M221.84,419.83A189.49,189.49,0,0,1,40,230C40,125.23,125.23,40,230,40c88.34,0,166.35,62.49,185.48,148.58a20,20,0,1,0,39-8.67A230,230,0,0,0,230,0,230,230,0,0,0,64.15,389.36a228.81,228.81,0,0,0,156,70.43l.85,0a20,20,0,0,0,.83-40Z"/><path d="M230,80.15a20,20,0,0,0-20,20V221.72l-64.61,64.61a20,20,0,1,0,28.28,28.28l70.47-70.47A20,20,0,0,0,250,230V100.15A20,20,0,0,0,230,80.15Z"/><path d="M470.86,248.35c-20.86-8.52-48.15-13.2-76.86-13.2s-56,4.68-76.85,13.2C281.35,263,276,283.94,276,295.15v156c0,11.2,5.35,32.19,41.15,46.8,20.85,8.51,48.14,13.2,76.85,13.2s56-4.69,76.86-13.2c35.79-14.61,41.14-35.6,41.14-46.8v-156C512,283.94,506.65,263,470.86,248.35ZM472,450.51c-3.3,6.15-30.19,20.64-78,20.64s-74.7-14.49-78-20.64V418.46c.39.16.75.33,1.15.49,20.85,8.51,48.14,13.2,76.85,13.2,6.93,0,13.86-.28,20.6-.82a20,20,0,1,0-3.2-39.87c-5.68.46-11.54.69-17.4.69-47.82,0-74.71-14.49-78-20.64V341.46c.39.17.75.33,1.15.49,20.85,8.51,48.14,13.2,76.85,13.2,6.93,0,13.86-.27,20.6-.82a20,20,0,1,0-3.2-39.87c-5.68.46-11.54.69-17.4.69-46.24,0-72.91-13.55-77.59-20,4.69-6.46,31.36-20,77.59-20,47.81,0,74.7,14.48,78,20.63Z"/></g></g></svg>