<svg xmlns="http://www.w3.org/2000/svg" viewBox="0 0 512 512"><title>monay</title><g id="Layer_2" data-name="Layer 2"><g id="Capa_1" data-name="Capa 1"><path d="M312.94,424.77,276,461.28V276a20,20,0,0,0-40,0V459.3l-34.94-34.53a20,20,0,1,0-28.12,28.46l41.59,41.09a59.85,59.85,0,0,0,84.94,0l41.59-41.09a20,20,0,0,0-28.12-28.46Z"/><path d="M492,276a20,20,0,0,0-20,20,40,40,0,0,1-40,40H336a20,20,0,0,0,0,40h96a80.09,80.09,0,0,0,80-80A20,20,0,0,0,492,276Z"/><path d="M311.17,253.82a20,20,0,0,0,27.65-6,112.56,112.56,0,0,0,18.18-61c0-59.55-45.31-108-101-108s-101,48.45-101,108c0,22.9,5.8,43.44,17.23,61a20,20,0,1,0,33.54-21.8c-7.15-11-10.77-24.19-10.77-39.22,0-37.5,27.36-68,61-68s61,30.5,61,68a72.49,72.49,0,0,1-11.82,39.29A20,20,0,0,0,311.17,253.82Z"/><circle cx="415" cy="187" r="20"/><circle cx="97" cy="187" r="20"/><path d="M432,0H80A80.09,80.09,0,0,0,0,80V296a80.09,80.09,0,0,0,80,80h96a20,20,0,0,0,0-40H80a40,40,0,0,1-40-40V80A40,40,0,0,1,80,40H432a40,40,0,0,1,40,40V196a20,20,0,0,0,40,0V80A80.09,80.09,0,0,0,432,0Z"/></g></g></svg>